<?xml version="1.0" encoding="UTF-8" standalone="no"?>
<svg
   xmlns:dc="http://purl.org/dc/elements/1.1/"
   xmlns:cc="http://creativecommons.org/ns#"
   xmlns:rdf="http://www.w3.org/1999/02/22-rdf-syntax-ns#"
   xmlns:svg="http://www.w3.org/2000/svg"
   xmlns="http://www.w3.org/2000/svg"
   width="320"
   height="320"
   viewBox="0 0 84.666665 84.666669"
   version="1.1"
   id="svg27">
  <defs
     id="defs21" />
  <metadata
     id="metadata24">
    <rdf:RDF>
      <cc:Work
         rdf:about="">
        <dc:format>image/svg+xml</dc:format>
        <dc:type
           rdf:resource="http://purl.org/dc/dcmitype/StillImage" />
        <dc:title></dc:title>
      </cc:Work>
    </rdf:RDF>
  </metadata>
  <g
     id="layer1"
     transform="matrix(0.50620951,0,0,1.0212418,-15.056558,-67.495954)">
    <g
       aria-label="鿦"
       transform="matrix(0.26458333,0,0,0.26458333,0.51928797,-0.88053355)"
       style="font-style:normal;font-weight:normal;font-size:40px;line-height:1.25;font-family:sans-serif;letter-spacing:0px;word-spacing:0px;fill:#000000;fill-opacity:1;stroke:none"
       id="flowRoot29">
      <path
         d="m 295.79858,349.38069 v -56.66133 c 7.168,-1.024 10.24,-4.096 10.58134,-8.192 l -25.6,-3.41334 v 68.26667 c -3.072,1.70667 -6.48534,4.096 -8.192,5.80267 l 18.432,12.288 6.82666,-7.85067 h 37.54667 v 12.62934 h 3.41334 c 4.77866,0 11.264,-4.096 11.264,-6.48534 v -74.06933 c 6.82666,-1.024 9.55733,-3.75467 9.89866,-7.85067 l -24.576,-2.73067 v 68.26667 h -11.60533 v -80.55467 c 7.168,-1.36533 10.24,-4.43733 10.92267,-8.87466 l -26.62401,-3.072 v 92.50133 z m 24.576,38.912 h -45.056 l 2.73067,10.24 h 65.19467 c 4.77867,0 7.85067,-1.70666 8.53333,-5.46133 -7.85066,-8.192 -20.48,-18.432 -20.48,-18.432 z m -84.992,-36.52266 c 16.04267,-20.13867 31.06134,-50.51734 41.30134,-80.21334 7.50933,0 10.92266,-3.072 12.288,-6.82667 l -27.98934,-8.192 c -7.168,33.45067 -19.456,68.94934 -31.40266,91.81867 z m -33.10933,31.744 v 72.02133 h -21.84534 c 3.072,-21.504 4.096,-45.73867 4.43734,-72.02133 z m -54.61334,72.02133 v -72.02133 h 18.77334 c -0.34134,26.624 -0.68267,50.51733 -3.41334,72.02133 z m 71.68001,-2.38933 v -67.24267 c 8.53333,-0.68267 12.97066,-2.73067 15.36,-6.48533 l -25.94134,-19.456 -10.58133,13.312 h -13.312 l 0.34133,-27.30667 c 5.12,-0.68267 8.192,-2.73067 9.89867,-5.12 v 7.168 h 3.75466 c 6.48534,0 14.336,-4.43733 14.336,-6.82667 v -30.72 h 24.57601 c 4.77866,0 7.85066,-1.70667 8.53333,-5.46133 -8.53333,-8.87467 -22.18667,-19.456 -22.18667,-19.456 l -10.92267,12.97066 v -33.792 c 7.16801,-1.024 10.24001,-4.096 10.92267,-8.192 l -29.01333,-3.41333 v 47.104 h -34.13334 v -35.49867 c 7.50934,-1.36533 10.24,-4.096 10.92267,-8.53333 l -28.672,-3.072 v 47.104 h -32.768 l 2.73067,10.24 h 30.03733 v 39.936 h 3.41333 c 6.48534,0 14.336,-4.43733 14.336,-6.82666 v -33.10934 h 34.13334 v 26.624 l -28.672,-3.072 v 39.25334 h -15.01867 l -20.82133,-9.55734 v 91.81867 h -19.456 l 2.73066,9.89867 h 47.44534 c -5.80267,37.54667 -19.456,67.24267 -49.152,90.79467 l 4.77866,5.46133 c 31.744,-20.13867 48.81067,-45.73867 57.68534,-76.8 16.04266,17.74933 33.45066,44.37333 36.52266,64.85333 19.79734,15.36001 34.47467,-31.06133 -34.816,-72.02133 1.024,-3.75467 1.70667,-7.85067 2.73067,-12.288 h 59.392 c 4.77867,0 7.85067,-1.70667 8.53334,-5.46133 -7.168,-8.192 -19.11467,-19.11467 -19.11467,-19.11467 z m 39.936,-59.392 c 4.096,-8.192 7.85066,-16.04267 10.92266,-23.89334 6.144,1.36534 10.58134,-0.68266 12.97067,-4.096 l -27.30667,-14.67733 c -6.48533,30.03733 -17.74933,61.78133 -28.33066,82.60267 l 5.80266,3.072 c 4.43734,-5.80267 9.216,-12.62934 13.65334,-20.13867 V 566.4687 h 3.072 c 6.82666,0 14.336,-4.77867 14.67733,-6.48534 V 406.04203 c 5.80267,-1.024 9.216,-3.072 10.24,-6.144 z m 103.76533,85.67467 c -8.192,5.12 -16.384,10.24 -23.89333,15.01866 v -50.176 c 6.48533,-1.024 12.288,-4.096 14.336,-6.48533 l -23.552,-18.432 -11.264,11.60533 h -14.336 l -20.48,-9.89867 v 38.57067 c 0,30.72 0.34133,65.87734 -15.01867,97.28 l 4.43733,4.43734 c 25.94134,-30.72 27.648,-73.38667 27.648,-102.05867 v -18.09067 h 21.16267 v 54.61334 c 0,4.77866 -1.024,6.48533 -8.192,10.24 l 9.89867,20.48 c 2.38933,-1.024 5.80267,-3.75467 7.168,-8.192 14.336,-13.312 29.35467,-28.672 35.15733,-34.47467 z m 27.98934,-137.21601 c 0,44.032 -2.38934,82.944 -10.58134,118.10134 -6.144,-25.25867 -9.89866,-53.58934 -11.94666,-82.60267 3.072,-11.60533 5.80266,-23.21067 8.53333,-35.49867 z m 26.624,0 c 4.096,0 7.168,-1.70666 8.192,-5.46133 -8.53334,-8.87467 -22.528,-20.13867 -22.528,-20.13867 l -11.94667,15.70133 h -12.97067 c 4.096,-20.82133 6.82667,-42.32533 9.216,-63.488 7.50934,-0.68266 10.58134,-4.43733 11.60534,-8.53333 l -30.03734,-4.43733 c -1.70666,53.58933 -8.87466,112.64 -19.456,155.98933 l 6.144,2.38934 c 2.38934,-5.12 4.43734,-10.92267 6.48534,-17.06667 1.70666,30.72 5.12,60.07467 10.92266,87.04 -9.89866,27.98934 -24.91733,53.58934 -47.78667,77.82401 l 4.09601,4.43733 c 21.84533,-18.09067 37.888,-38.22934 49.49333,-60.07467 6.82667,23.552 16.72533,44.37333 30.03733,60.07467 2.73067,-8.192 9.216,-12.288 16.384,-13.312 l 1.024,-2.73067 c -17.408,-15.36 -29.696,-37.20533 -38.912,-63.14667 16.04267,-40.61867 20.13867,-88.064 21.84534,-145.06667 z"
         style="font-style:normal;font-variant:normal;font-weight:normal;font-stretch:normal;font-size:341.333px;font-family:'Source Han Serif';-inkscape-font-specification:'Source Han Serif'"
         id="path37" />
    </g>
  </g>
  <path
     d="m 55.512409,29.279001 h 4.56964 v -2.797356 h -4.56964 z M 51.76531,19.022028 v 23.497797 h 0.41127 c 1.2795,0 2.193429,-1.398678 2.193429,-1.95815 V 19.022028 h 5.71204 v 7.459617 l 0.73113,0.466226 c 0.50266,-1.771658 1.23381,-5.035242 1.69077,-7.086636 0.77684,-0.09324 1.3252,-0.279735 1.64507,-0.932454 l -2.97026,-5.967693 -1.59938,3.356828 h -5.20937 V 7.832599 h 7.4028 c 0.59405,0 1.00532,-0.466225 1.1424,-1.491923 C 61.498629,3.636563 59.213809,0 59.213809,0 l -2.01063,5.128489 H 44.225421 l 0.36557,2.70411 h 7.174319 v 8.485317 h -5.849119 c -0.13709,-1.212187 -0.27418,-2.33113 -0.50266,-3.543319 h -0.77684 c 0.0914,4.102791 -0.77684,8.298825 -1.46228,9.511012 -2.01064,3.636564 0,7.739355 1.69076,4.662262 0.95962,-1.678414 1.32519,-4.662262 1.2338,-7.925843 z m 3.747099,18.74229 h 5.43787 v -2.797356 h -5.43787 z M 50.6686,26.574892 h -4.523929 v 2.797356 H 50.6686 Z M 45.093651,37.764318 H 50.6686 V 35.060206 H 45.093651 Z M 54.18722,75.528635 V 63.127021 h 4.341149 V 75.528635 Z M 47.332771,63.127021 H 51.76531 V 75.528635 H 47.332771 Z M 51.76531,48.487519 V 60.422908 H 47.332771 V 48.487519 Z m 6.763059,0 V 60.422908 H 54.18722 V 48.487519 Z m -0.45696,-2.704111 H 47.561251 l -2.78747,-2.610867 v 41.400882 h 0.45696 c 1.05102,0 2.10203,-1.21219 2.10203,-1.864905 v -4.475771 h 11.195598 v 6.060941 h 0.36557 c 0.86823,0 2.14773,-1.398679 2.19342,-1.958151 V 49.606461 c 0.91393,-0.372979 1.64507,-1.118942 1.96495,-1.864902 l -3.42723,-5.408225 z m 14.120159,-14.919237 -2.78748,-1.305434 c -0.13708,1.585169 -0.31987,3.263583 -0.50265,4.941997 -0.54836,-0.932451 -1.14241,-1.864905 -1.82786,-2.8906 l -0.41126,0.372979 v -5.408221 h 5.52925 z m -2.87887,20.420704 c -0.0914,1.771661 -0.22848,3.543319 -0.41126,5.314977 -0.54836,-1.118942 -1.14241,-2.144637 -1.82786,-3.26358 l -0.41126,0.37298 v -5.50147 l 0.68544,0.745963 c 0.82253,-2.051393 1.50798,-4.755506 2.14772,-7.646107 0.50267,2.144638 0.86824,4.196035 1.00533,6.060937 1.50798,2.517621 2.74178,-2.797356 -0.22849,-9.883992 0.22849,-1.491926 0.45697,-2.983849 0.68545,-4.382526 0.59405,0 0.95962,-0.279737 1.2338,-0.839207 v 20.32746 z m -2.65038,3.356828 c 0.59405,1.678414 1.2338,3.543319 1.82785,5.594714 -0.50266,4.009546 -1.09672,7.832599 -1.82785,10.909691 z m 0,-21.726138 c 0.59405,1.305434 1.2338,2.983848 1.82785,4.848753 -0.50266,3.729809 -1.14241,7.179883 -1.82785,10.070485 z M 79.228797,5.128489 H 63.463569 l 0.36558,2.70411 h 8.133939 v 15.944936 h -4.75242 l -2.4219,-2.237885 c 2.01063,-2.424377 3.92988,-5.687962 5.07229,-8.112335 1.00532,0.466224 1.37089,0.09324 1.69076,-0.745962 l -3.38153,-3.636565 c -1.05101,3.729809 -3.19874,9.324522 -5.209379,12.68135 l 0.54836,1.305434 c 0.22848,-0.279736 0.50266,-0.559471 0.73114,-0.839207 v 62.474302 h 0.365569 c 1.2338,0 2.05634,-1.398678 2.05634,-1.771658 V 71.239355 l 0.77683,0.839207 c 0.77684,-2.237885 1.41659,-5.035243 2.01064,-8.01909 0.45696,1.864905 0.82253,3.729808 0.95963,5.408222 1.46228,2.517623 2.69608,-2.424375 -0.1371,-9.790749 0.27418,-1.585167 0.50267,-3.263581 0.68545,-4.941995 0.59405,-0.09324 0.95962,-0.466227 1.2338,-1.025698 v 27.600587 h 0.27418 c 1.05101,0 1.78216,-1.212187 1.82785,-1.585169 V 26.574892 h 5.346469 v 4.289279 l -2.60469,-1.118942 c -0.13709,1.678414 -0.27418,3.356828 -0.41127,5.035242 -0.50266,-0.932452 -1.09671,-1.864906 -1.73646,-2.704113 l -0.594049,0.559471 c 0.639749,1.491926 1.325189,3.450075 1.919249,5.50147 -0.50266,3.916299 -1.14241,7.646109 -1.782159,10.443467 l 0.776839,0.74596 c 0.73114,-1.958151 1.41658,-4.475771 1.96494,-7.273128 0.31987,1.771661 0.59405,3.450075 0.63975,5.035242 1.50798,2.610868 2.83317,-2.517621 0.18278,-9.324522 0.22849,-1.58517 0.50266,-3.077092 0.68545,-4.569017 0.41127,0 0.73114,-0.186489 0.95962,-0.559472 v 20.047725 l -2.65039,-1.118944 c -0.13708,1.678414 -0.22848,3.263584 -0.36557,4.941998 -0.50266,-0.932451 -1.05101,-1.958149 -1.69076,-2.983847 l -0.639749,0.652718 c 0.639749,1.585166 1.325189,3.636564 1.919249,5.874449 -0.50266,4.196035 -1.14241,8.019088 -1.873549,11.09618 l 0.822529,0.839209 c 0.73114,-2.237887 1.41659,-4.941998 1.96494,-7.832601 0.41127,1.771661 0.68545,3.543319 0.82254,5.128489 1.46228,2.610865 2.78747,-2.424377 0,-9.697504 0.27418,-1.398679 0.50266,-2.983849 0.68544,-4.475771 0.41127,0 0.77684,-0.279736 1.00532,-0.559471 v 21.726138 c 0,1.305434 -0.18278,1.771659 -0.82253,1.771659 -0.68545,0 -3.7471,-0.559472 -3.7471,-0.559472 v 1.491925 c 1.37089,0.37298 2.19342,1.025696 2.69608,1.771659 0.45697,0.839207 0.63975,2.144641 0.73114,3.54332 3.19875,-0.745963 3.56432,-3.17034 3.56432,-7.45962 V 27.134362 c 0.68544,-0.279735 1.32519,-0.932453 1.59937,-1.585169 l -3.24444,-4.755506 -1.14241,2.983848 H 74.522078 V 7.832599 h 9.002179 c 0.59405,0 1.00532,-0.466225 1.142409,-1.491923 C 83.341467,3.729811 81.148047,0.186491 81.148047,0.186491 Z m -3.7014,6.154185 c 3.10735,3.450072 5.52926,7.925843 6.48888,10.536711 2.4676,2.517621 3.975579,-7.459618 -6.12331,-12.028637 z"
     style="font-style:normal;font-variant:normal;font-weight:normal;font-stretch:normal;font-size:341.333px;line-height:1.25;font-family:'Source Han Serif';-inkscape-font-specification:'Source Han Serif';letter-spacing:0px;word-spacing:0px;fill:#000000;fill-opacity:1;stroke:none;stroke-width:0.191238"
     id="path75" />
</svg>
